<svg width="28" height="28" viewBox="0 0 28 28" fill="none" xmlns="http://www.w3.org/2000/svg">
<g id="Print" clip-path="url(#clip0_132_94)">
<path id="Vector" d="M22.1667 9.33333H21V3.5H7.00004V9.33333H5.83337C3.89671 9.33333 2.33337 10.8967 2.33337 12.8333V19.8333H7.00004V24.5H21V19.8333H25.6667V12.8333C25.6667 10.8967 24.1034 9.33333 22.1667 9.33333ZM9.33337 5.83333H18.6667V9.33333H9.33337V5.83333ZM18.6667 19.8333V22.1667H9.33337V17.5H18.6667V19.8333ZM21 17.5V15.1667H7.00004V17.5H4.66671V12.8333C4.66671 12.1917 5.19171 11.6667 5.83337 11.6667H22.1667C22.8084 11.6667 23.3334 12.1917 23.3334 12.8333V17.5H21Z" fill="#7D8391"/>
<path id="Vector_2" d="M21 14.5833C21.6444 14.5833 22.1667 14.061 22.1667 13.4167C22.1667 12.7723 21.6444 12.25 21 12.25C20.3557 12.25 19.8334 12.7723 19.8334 13.4167C19.8334 14.061 20.3557 14.5833 21 14.5833Z" fill="#7D8391"/>
</g>
<defs>
<clipPath id="clip0_132_94">
<rect width="28" height="28" fill="white"/>
</clipPath>
</defs>
</svg>
